<svg width="25" height="25" viewBox="0 0 25 25" fill="none" xmlns="http://www.w3.org/2000/svg">
<g id="Notification">
<path id="Vector" d="M18.3734 9.40644L17.628 9.48955L18.3734 9.40644ZM18.8227 13.4361L19.5681 13.3529L18.8227 13.4361ZM5.38591 13.4361L4.64053 13.3529H4.64053L5.38591 13.4361ZM5.83521 9.40644L6.5806 9.48955L5.83521 9.40644ZM4.51631 15.4374L3.94098 14.9563H3.94098L4.51631 15.4374ZM19.6923 15.4374L19.117 15.9185H19.117L19.6923 15.4374ZM14.385 4.70034H13.635C13.635 5.01941 13.8369 5.30355 14.1382 5.40856L14.385 4.70034ZM9.82362 4.70034L10.0704 5.40856C10.3717 5.30355 10.5736 5.01941 10.5736 4.70034H9.82362ZM15.8224 20.941C15.9655 20.5522 15.7664 20.1211 15.3777 19.978C14.989 19.8349 14.5578 20.034 14.4147 20.4227L15.8224 20.941ZM9.79391 20.4227C9.6508 20.034 9.21968 19.8349 8.83097 19.978C8.44227 20.1211 8.24318 20.5522 8.38629 20.941L9.79391 20.4227ZM17.9089 17.8864H6.29976V19.3864H17.9089V17.8864ZM17.628 9.48955L18.0774 13.5192L19.5681 13.3529L19.1188 9.32333L17.628 9.48955ZM6.13129 13.5192L6.5806 9.48955L5.08983 9.32333L4.64053 13.3529L6.13129 13.5192ZM5.09165 15.9185C5.67002 15.2269 6.03333 14.3977 6.13129 13.5192L4.64053 13.3529C4.57664 13.9259 4.33853 14.4809 3.94098 14.9563L5.09165 15.9185ZM18.0774 13.5192C18.1753 14.3977 18.5386 15.2269 19.117 15.9185L20.2677 14.9563C19.8701 14.4809 19.632 13.9259 19.5681 13.3529L18.0774 13.5192ZM6.29976 17.8864C5.64695 17.8864 5.17943 17.558 4.96088 17.1659C4.74818 16.7844 4.75272 16.3238 5.09165 15.9185L3.94098 14.9563C3.17768 15.869 3.15542 17.0079 3.65073 17.8964C4.1402 18.7743 5.11552 19.3864 6.29976 19.3864V17.8864ZM17.9089 19.3864C19.0931 19.3864 20.0684 18.7743 20.5579 17.8964C21.0532 17.0079 21.031 15.869 20.2677 14.9563L19.117 15.9185C19.4559 16.3238 19.4605 16.7844 19.2478 17.1659C19.0292 17.558 18.5617 17.8864 17.9089 17.8864V19.3864ZM15.135 4.70034V4.59426H13.635V4.70034H15.135ZM19.1188 9.32333C18.8398 6.82119 17.0144 4.82247 14.6319 3.99212L14.1382 5.40856C16.0608 6.0786 17.4225 7.64601 17.628 9.48955L19.1188 9.32333ZM10.5736 4.70034V4.59426H9.07362V4.70034H10.5736ZM6.5806 9.48955C6.78615 7.64602 8.14789 6.0786 10.0704 5.40856L9.57679 3.99212C7.19425 4.82247 5.36882 6.82119 5.08983 9.32333L6.5806 9.48955ZM12.1043 3.02273C12.9372 3.02273 13.635 3.71373 13.635 4.59426H15.135C15.135 2.9105 13.7906 1.52273 12.1043 1.52273V3.02273ZM12.1043 1.52273C10.418 1.52273 9.07362 2.9105 9.07362 4.59426H10.5736C10.5736 3.71373 11.2714 3.02273 12.1043 3.02273V1.52273ZM14.4147 20.4227C14.0865 21.3142 13.1873 21.9773 12.1043 21.9773V23.4773C13.8046 23.4773 15.2731 22.4328 15.8224 20.941L14.4147 20.4227ZM12.1043 21.9773C11.0214 21.9773 10.1221 21.3142 9.79391 20.4227L8.38629 20.941C8.93557 22.4328 10.4041 23.4773 12.1043 23.4773V21.9773Z" fill="#797C7B"/>
</g>
</svg>
